<?xml version="1.0" encoding="UTF-8"?>
<svg version="1.1" xmlns="http://www.w3.org/2000/svg" width="3788" height="2078">
<path d="M0 0 C1250.04 0 2500.08 0 3788 0 C3788 685.74 3788 1371.48 3788 2078 C2537.96 2078 1287.92 2078 0 2078 C0 1392.26 0 706.52 0 0 Z " fill="#DDE1FD" transform="translate(0,0)"/>
<path d="M0 0 C587.07 0 1174.14 0 1779 0 C1779 591.36 1779 1182.72 1779 1792 C1191.93 1792 604.86 1792 0 1792 C0 1200.64 0 609.28 0 0 Z " fill="#79D1C3" transform="translate(1894,247)"/>
<path d="M0 0 C0.6865221 -0.00155999 1.37304421 -0.00311998 2.08037001 -0.00472724 C4.35621994 -0.00868174 6.63200188 -0.00556931 8.90785217 -0.00241089 C10.54958129 -0.00376741 12.19131009 -0.00554875 13.83303833 -0.00772095 C18.27518361 -0.0122658 22.71730557 -0.01051776 27.15945125 -0.00734186 C31.81838845 -0.00480259 36.47732371 -0.0071602 41.13626099 -0.00872803 C48.95986793 -0.01054533 56.78346542 -0.00815512 64.60707092 -0.00338745 C73.6377224 0.00205242 82.66835128 0.00029274 91.69900221 -0.00521386 C99.46654545 -0.00975977 107.23408192 -0.01038824 115.00162607 -0.00777519 C119.6346321 -0.00622031 124.26762753 -0.00599695 128.90063286 -0.00931168 C133.2582765 -0.01221181 137.61589119 -0.01017547 141.97353172 -0.00441742 C143.56780194 -0.0031012 145.16207462 -0.00346448 146.75634384 -0.00568008 C154.47300295 -0.01541096 162.06591806 0.04502731 169.72059631 1.12698364 C170.91202991 9.55619711 170.86179444 17.95018064 170.84999084 26.44363403 C170.8513477 28.08713316 170.85312924 29.73063199 170.8553009 31.37413025 C170.85984098 35.81614918 170.8580999 40.25814476 170.85492182 44.70016408 C170.85238091 49.35956333 170.85474053 54.01896065 170.85630798 58.67835999 C170.85812445 66.50018674 170.8557369 74.32200403 170.85096741 82.14382935 C170.84552389 91.17508961 170.8472902 100.20632731 170.85279381 109.23758703 C170.85733756 117.00598406 170.85796936 124.77437431 170.85535514 132.54277223 C170.85379957 137.17629042 170.85357891 141.80979801 170.85689163 146.44331551 C170.85978875 150.79932775 170.85776088 155.15531099 170.85199738 159.51132011 C170.85067972 161.10601122 170.85104693 162.70070478 170.85326004 164.2953949 C170.85601076 166.47948909 170.85254288 168.66349154 170.84757996 170.84757996 C170.84701442 172.67731905 170.84701442 172.67731905 170.84643745 174.54402256 C170.70857181 178.46934652 170.26037015 182.23822074 169.72059631 186.12698364 C164.55107735 186.84566345 159.58181883 187.25237345 154.35180664 187.25396729 C153.30765613 187.25630727 153.30765613 187.25630727 152.24241167 187.25869453 C149.93425505 187.26264984 147.62616542 187.2595363 145.31800842 187.25637817 C143.6533301 187.25773463 141.98865207 187.25951594 140.32397461 187.26168823 C135.81998222 187.2662331 131.31601283 187.26448523 126.81202006 187.26130915 C122.09075405 187.25877073 117.36948997 187.26112717 112.64822388 187.26269531 C104.72206775 187.2645125 96.79592095 187.26212232 88.86976624 187.25735474 C79.71410689 187.25191111 70.5584698 187.25367732 61.40281099 187.25918114 C53.53169055 187.26372285 45.6605768 187.26435769 37.78945547 187.26174247 C33.0927971 187.26018577 28.39614919 187.25996935 23.6994915 187.26327896 C19.2843999 187.2661731 14.86933694 187.26415363 10.45424843 187.2583847 C8.83656232 187.25706546 7.21887379 187.257437 5.60118866 187.25964737 C3.38822763 187.26239175 1.17535762 187.25893775 -1.03759766 187.25396729 C-2.27439301 187.25359026 -3.51118837 187.25321323 -4.78546238 187.25282478 C-8.34630123 187.1245742 -11.76402353 186.6946143 -15.27940369 186.12698364 C-16.05365986 181.33195576 -16.40490731 176.74024303 -16.40638733 171.88517761 C-16.40794732 171.19063726 -16.40950731 170.49609692 -16.41111457 169.78050989 C-16.415078 167.47158126 -16.41195309 165.16271931 -16.40879822 162.85379028 C-16.41015434 161.19088198 -16.41193546 159.52797397 -16.41410828 157.86506653 C-16.41865787 153.36094779 -16.41690313 148.85685202 -16.41372919 144.3527329 C-16.41119239 139.63192894 -16.41354685 134.91112691 -16.41511536 130.19032288 C-16.41693337 122.26238656 -16.41454057 114.33445956 -16.40977478 106.40652466 C-16.40433475 97.2514741 -16.40609442 88.09644583 -16.41160119 78.94139582 C-16.41614502 71.07112916 -16.41677658 63.20086918 -16.41416252 55.33060163 C-16.4126065 50.63445543 -16.41238742 45.93831968 -16.41569901 41.24217415 C-16.41859611 36.82545114 -16.41656827 32.40875675 -16.41080475 27.99203682 C-16.40948693 26.3747716 -16.4098546 24.75750396 -16.41206741 23.14023972 C-16.41481755 20.92538551 -16.4113509 18.71062182 -16.40638733 16.49577332 C-16.4060103 15.25860093 -16.40563328 14.02142855 -16.40524483 12.74676609 C-16.26830891 8.80784566 -15.82185679 5.02889043 -15.27940369 1.12698364 C-10.14001103 0.41361804 -5.19919232 0.00160697 0 0 Z " fill="#DDE1FD" transform="translate(396.27940368652344,1882.8730163574219)"/>
<path d="M0 0 C0.69131122 -0.00155999 1.38262244 -0.00311998 2.09488249 -0.00472724 C4.38688576 -0.00868215 6.67882155 -0.00556916 8.9708252 -0.00241089 C10.62402891 -0.00376738 12.27723233 -0.0055487 13.93043518 -0.00772095 C18.40350402 -0.01226581 22.87654969 -0.01051786 27.34961891 -0.00734186 C32.03972052 -0.00480302 36.72982019 -0.00716004 41.41992188 -0.00872803 C49.29480341 -0.01054527 57.16967556 -0.00815508 65.04455566 -0.00338745 C74.13771107 0.00205431 83.23084406 0.00029134 92.32399893 -0.00521386 C100.14333077 -0.00975765 107.96265588 -0.01038933 115.78198862 -0.00777519 C120.44682082 -0.00621939 125.11164249 -0.00599953 129.776474 -0.00931168 C134.16284162 -0.01220879 138.54918044 -0.01018093 142.93554497 -0.00441742 C144.54152313 -0.00309968 146.14750373 -0.00346712 147.75348091 -0.00568008 C149.95295511 -0.00843051 152.15233818 -0.00496325 154.35180664 0 C156.19455547 0.00056554 156.19455547 0.00056554 158.07453156 0.0011425 C162.00665259 0.13854087 165.78056856 0.58587124 169.67590332 1.12698364 C169.9037679 3.17776489 170.13163249 5.22854614 170.35949707 7.27932739 C170.49476946 9.13838593 170.49476946 9.13838593 171.67590332 10.12698364 C171.67590332 28.93698364 171.67590332 47.74698364 171.67590332 67.12698364 C109.63590332 67.12698364 47.59590332 67.12698364 -16.32409668 67.12698364 C-16.32409668 9.12698364 -16.32409668 9.12698364 -15.32409668 1.12698364 C-10.16963645 0.41096242 -5.21460667 0.00160036 0 0 Z " fill="#DDE1FD" transform="translate(2100.3240966796875,179.87301635742188)"/>
<path d="M0 0 C0.6821021 -0.00155999 1.36420421 -0.00311998 2.06697607 -0.00472724 C4.36941994 -0.00873932 6.67179872 -0.00554681 8.97424316 -0.00241089 C10.61806782 -0.00376484 12.26189217 -0.00554473 13.90571594 -0.00772095 C18.38286133 -0.01229604 22.85998378 -0.01050541 27.33712959 -0.00734186 C32.01186309 -0.00481865 36.68659456 -0.00715569 41.36132812 -0.00872803 C49.21326044 -0.01054984 57.06518337 -0.00814312 64.91711426 -0.00338745 C74.00855878 0.00205519 83.09998087 0.00029254 92.19142485 -0.00521386 C99.9824809 -0.00974466 107.77353018 -0.01039569 115.56458712 -0.00777519 C120.22427011 -0.00621223 124.88394255 -0.00601915 129.54362488 -0.00931168 C133.92331179 -0.01218992 138.30296966 -0.01021556 142.68265343 -0.00441742 C144.29479105 -0.00308957 145.90693109 -0.00348436 147.51906776 -0.00568008 C149.71041793 -0.00839063 151.90167353 -0.00501168 154.09301758 0 C155.9369598 0.00056554 155.9369598 0.00056554 157.81815338 0.0011425 C160.54650879 0.12698364 160.54650879 0.12698364 161.54650879 1.12698364 C162.89397963 1.35773446 164.25028444 1.53851427 165.60900879 1.68948364 C166.90838379 1.83385864 168.20775879 1.97823364 169.54650879 2.12698364 C169.54650879 3.77698364 169.54650879 5.42698364 169.54650879 7.12698364 C108.16650879 7.12698364 46.78650879 7.12698364 -16.45349121 7.12698364 C-16.12349121 5.47698364 -15.79349121 3.82698364 -15.45349121 2.12698364 C-13.40270996 1.89911906 -11.35192871 1.67125448 -9.30114746 1.44338989 C-0.87402864 0.00026807 -0.87402864 0.00026807 0 0 Z " fill="#DDE1FD" transform="translate(1532.4534912109375,2070.873016357422)"/>
<path d="M0 0 C0.6821021 -0.00155999 1.36420421 -0.00311998 2.06697607 -0.00472724 C4.36941994 -0.00873932 6.67179872 -0.00554681 8.97424316 -0.00241089 C10.61806782 -0.00376484 12.26189217 -0.00554473 13.90571594 -0.00772095 C18.38286133 -0.01229604 22.85998378 -0.01050541 27.33712959 -0.00734186 C32.01186309 -0.00481865 36.68659456 -0.00715569 41.36132812 -0.00872803 C49.21326044 -0.01054984 57.06518337 -0.00814312 64.91711426 -0.00338745 C74.00855878 0.00205519 83.09998087 0.00029254 92.19142485 -0.00521386 C99.9824809 -0.00974466 107.77353018 -0.01039569 115.56458712 -0.00777519 C120.22427011 -0.00621223 124.88394255 -0.00601915 129.54362488 -0.00931168 C133.92331179 -0.01218992 138.30296966 -0.01021556 142.68265343 -0.00441742 C144.29479105 -0.00308957 145.90693109 -0.00348436 147.51906776 -0.00568008 C149.71041793 -0.00839063 151.90167353 -0.00501168 154.09301758 0 C155.9369598 0.00056554 155.9369598 0.00056554 157.81815338 0.0011425 C160.54650879 0.12698364 160.54650879 0.12698364 161.54650879 1.12698364 C162.89397963 1.35773446 164.25028444 1.53851427 165.60900879 1.68948364 C166.90838379 1.83385864 168.20775879 1.97823364 169.54650879 2.12698364 C169.54650879 3.77698364 169.54650879 5.42698364 169.54650879 7.12698364 C108.49650879 7.12698364 47.44650879 7.12698364 -15.45349121 7.12698364 C-15.45349121 5.47698364 -15.45349121 3.82698364 -15.45349121 2.12698364 C-13.40270996 1.89911906 -11.35192871 1.67125448 -9.30114746 1.44338989 C-0.87402864 0.00026807 -0.87402864 0.00026807 0 0 Z " fill="#DDE1FD" transform="translate(3236.4534912109375,2070.873016357422)"/>
<path d="M0 0 C0.6821021 -0.00155999 1.36420421 -0.00311998 2.06697607 -0.00472724 C4.36941994 -0.00873932 6.67179872 -0.00554681 8.97424316 -0.00241089 C10.61806782 -0.00376484 12.26189217 -0.00554473 13.90571594 -0.00772095 C18.38286133 -0.01229604 22.85998378 -0.01050541 27.33712959 -0.00734186 C32.01186309 -0.00481865 36.68659456 -0.00715569 41.36132812 -0.00872803 C49.21326044 -0.01054984 57.06518337 -0.00814312 64.91711426 -0.00338745 C74.00855878 0.00205519 83.09998087 0.00029254 92.19142485 -0.00521386 C99.9824809 -0.00974466 107.77353018 -0.01039569 115.56458712 -0.00777519 C120.22427011 -0.00621223 124.88394255 -0.00601915 129.54362488 -0.00931168 C133.92331179 -0.01218992 138.30296966 -0.01021556 142.68265343 -0.00441742 C144.29479105 -0.00308957 145.90693109 -0.00348436 147.51906776 -0.00568008 C149.71041793 -0.00839063 151.90167353 -0.00501168 154.09301758 0 C155.9369598 0.00056554 155.9369598 0.00056554 157.81815338 0.0011425 C160.54650879 0.12698364 160.54650879 0.12698364 161.54650879 1.12698364 C162.89397963 1.35773446 164.25028444 1.53851427 165.60900879 1.68948364 C166.90838379 1.83385864 168.20775879 1.97823364 169.54650879 2.12698364 C169.54650879 3.77698364 169.54650879 5.42698364 169.54650879 7.12698364 C108.49650879 7.12698364 47.44650879 7.12698364 -15.45349121 7.12698364 C-15.45349121 5.47698364 -15.45349121 3.82698364 -15.45349121 2.12698364 C-13.40270996 1.89911906 -11.35192871 1.67125448 -9.30114746 1.44338989 C-0.87402864 0.00026807 -0.87402864 0.00026807 0 0 Z " fill="#DDE1FD" transform="translate(2100.4534912109375,2070.873016357422)"/>
<path d="M0 0 C1.65335122 -0.00135684 3.30670214 -0.00313836 4.96005249 -0.00531006 C9.42893002 -0.00985037 13.89778435 -0.00810896 18.36666226 -0.00493097 C23.05408873 -0.00239018 27.74151327 -0.00474965 32.42893982 -0.00631714 C40.297845 -0.00813364 48.16674078 -0.00574596 56.03564453 -0.00097656 C65.12143633 0.00446695 74.20720569 0.00270066 83.29299694 -0.00280297 C91.1081027 -0.00734663 98.92320172 -0.00797856 106.73830837 -0.0053643 C111.39977221 -0.00380867 116.06122552 -0.0035882 120.72268867 -0.00690079 C125.10496568 -0.00979777 129.48721386 -0.00777027 133.86948776 -0.00200653 C135.47385421 -0.00068881 137.07822311 -0.0010562 138.68258858 -0.0032692 C140.87981977 -0.00601964 143.07695973 -0.00255237 145.27418518 0.00241089 C146.50138558 0.00278791 147.72858599 0.00316494 148.99297428 0.00355339 C152.9240639 0.14102234 156.69721514 0.58848487 160.59155273 1.12939453 C160.59155273 2.77939453 160.59155273 4.42939453 160.59155273 6.12939453 C99.21155273 6.12939453 37.83155273 6.12939453 -25.40844727 6.12939453 C-25.40844727 4.47939453 -25.40844727 2.82939453 -25.40844727 1.12939453 C-16.94963001 -0.06819773 -8.52348016 -0.01177315 0 0 Z " fill="#DDE1FD" transform="translate(1352.408447265625,2071.87060546875)"/>
<path d="M0 0 C0.6865221 -0.00155999 1.37304421 -0.00311998 2.08037001 -0.00472724 C4.35621994 -0.00868174 6.63200188 -0.00556931 8.90785217 -0.00241089 C10.54958129 -0.00376741 12.19131009 -0.00554875 13.83303833 -0.00772095 C18.27518361 -0.0122658 22.71730557 -0.01051776 27.15945125 -0.00734186 C31.81838845 -0.00480259 36.47732371 -0.0071602 41.13626099 -0.00872803 C48.95986793 -0.01054533 56.78346542 -0.00815512 64.60707092 -0.00338745 C73.6377224 0.00205242 82.66835128 0.00029274 91.69900221 -0.00521386 C99.46654545 -0.00975977 107.23408192 -0.01038824 115.00162607 -0.00777519 C119.6346321 -0.00622031 124.26762753 -0.00599695 128.90063286 -0.00931168 C133.2582765 -0.01221181 137.61589119 -0.01017547 141.97353172 -0.00441742 C143.56780194 -0.0031012 145.16207462 -0.00346448 146.75634384 -0.00568008 C154.47300295 -0.01541096 162.06591806 0.04502731 169.72059631 1.12698364 C170.05059631 2.77698364 170.38059631 4.42698364 170.72059631 6.12698364 C109.01059631 6.12698364 47.30059631 6.12698364 -16.27940369 6.12698364 C-15.94940369 4.47698364 -15.61940369 2.82698364 -15.27940369 1.12698364 C-10.14001103 0.41361804 -5.19919232 0.00160697 0 0 Z " fill="#DDE1FD" transform="translate(775.2794036865234,2071.873016357422)"/>
<path d="M0 0 C0.6865221 -0.00155999 1.37304421 -0.00311998 2.08037001 -0.00472724 C4.35621994 -0.00868174 6.63200188 -0.00556931 8.90785217 -0.00241089 C10.54958129 -0.00376741 12.19131009 -0.00554875 13.83303833 -0.00772095 C18.27518361 -0.0122658 22.71730557 -0.01051776 27.15945125 -0.00734186 C31.81838845 -0.00480259 36.47732371 -0.0071602 41.13626099 -0.00872803 C48.95986793 -0.01054533 56.78346542 -0.00815512 64.60707092 -0.00338745 C73.6377224 0.00205242 82.66835128 0.00029274 91.69900221 -0.00521386 C99.46654545 -0.00975977 107.23408192 -0.01038824 115.00162607 -0.00777519 C119.6346321 -0.00622031 124.26762753 -0.00599695 128.90063286 -0.00931168 C133.2582765 -0.01221181 137.61589119 -0.01017547 141.97353172 -0.00441742 C143.56780194 -0.0031012 145.16207462 -0.00346448 146.75634384 -0.00568008 C154.47300295 -0.01541096 162.06591806 0.04502731 169.72059631 1.12698364 C170.05059631 2.77698364 170.38059631 4.42698364 170.72059631 6.12698364 C109.01059631 6.12698364 47.30059631 6.12698364 -16.27940369 6.12698364 C-15.94940369 4.47698364 -15.61940369 2.82698364 -15.27940369 1.12698364 C-10.14001103 0.41361804 -5.19919232 0.00160697 0 0 Z " fill="#DDE1FD" transform="translate(207.27940368652344,2071.873016357422)"/>
<path d="M0 0 C0.69131122 -0.00155999 1.38262244 -0.00311998 2.09488249 -0.00472724 C4.38688576 -0.00868215 6.67882155 -0.00556916 8.9708252 -0.00241089 C10.62402891 -0.00376738 12.27723233 -0.0055487 13.93043518 -0.00772095 C18.40350402 -0.01226581 22.87654969 -0.01051786 27.34961891 -0.00734186 C32.03972052 -0.00480302 36.72982019 -0.00716004 41.41992188 -0.00872803 C49.29480341 -0.01054527 57.16967556 -0.00815508 65.04455566 -0.00338745 C74.13771107 0.00205431 83.23084406 0.00029134 92.32399893 -0.00521386 C100.14333077 -0.00975765 107.96265588 -0.01038933 115.78198862 -0.00777519 C120.44682082 -0.00621939 125.11164249 -0.00599953 129.776474 -0.00931168 C134.16284162 -0.01220879 138.54918044 -0.01018093 142.93554497 -0.00441742 C144.54152313 -0.00309968 146.14750373 -0.00346712 147.75348091 -0.00568008 C149.95295511 -0.00843051 152.15233818 -0.00496325 154.35180664 0 C156.19455547 0.00056554 156.19455547 0.00056554 158.07453156 0.0011425 C162.00665259 0.13854087 165.78056856 0.58587124 169.67590332 1.12698364 C169.67590332 2.77698364 169.67590332 4.42698364 169.67590332 6.12698364 C108.29590332 6.12698364 46.91590332 6.12698364 -16.32409668 6.12698364 C-15.99409668 4.47698364 -15.66409668 2.82698364 -15.32409668 1.12698364 C-10.16963645 0.41096242 -5.21460667 0.00160036 0 0 Z " fill="#DDE1FD" transform="translate(17.3240966796875,2071.873016357422)"/>
<path d="M0 0 C0.6865221 -0.00155999 1.37304421 -0.00311998 2.08037001 -0.00472724 C4.35621994 -0.00868174 6.63200188 -0.00556931 8.90785217 -0.00241089 C10.54958129 -0.00376741 12.19131009 -0.00554875 13.83303833 -0.00772095 C18.27518361 -0.0122658 22.71730557 -0.01051776 27.15945125 -0.00734186 C31.81838845 -0.00480259 36.47732371 -0.0071602 41.13626099 -0.00872803 C48.95986793 -0.01054533 56.78346542 -0.00815512 64.60707092 -0.00338745 C73.6377224 0.00205242 82.66835128 0.00029274 91.69900221 -0.00521386 C99.46654545 -0.00975977 107.23408192 -0.01038824 115.00162607 -0.00777519 C119.6346321 -0.00622031 124.26762753 -0.00599695 128.90063286 -0.00931168 C133.2582765 -0.01221181 137.61589119 -0.01017547 141.97353172 -0.00441742 C143.56780194 -0.0031012 145.16207462 -0.00346448 146.75634384 -0.00568008 C154.47300295 -0.01541096 162.06591806 0.04502731 169.72059631 1.12698364 C169.72059631 2.77698364 169.72059631 4.42698364 169.72059631 6.12698364 C108.34059631 6.12698364 46.96059631 6.12698364 -16.27940369 6.12698364 C-15.94940369 4.47698364 -15.61940369 2.82698364 -15.27940369 1.12698364 C-10.14001103 0.41361804 -5.19919232 0.00160697 0 0 Z " fill="#DDE1FD" transform="translate(964.2794036865234,2071.873016357422)"/>
<path d="M0 0 C0.6865221 -0.00155999 1.37304421 -0.00311998 2.08037001 -0.00472724 C4.35621994 -0.00868174 6.63200188 -0.00556931 8.90785217 -0.00241089 C10.54958129 -0.00376741 12.19131009 -0.00554875 13.83303833 -0.00772095 C18.27518361 -0.0122658 22.71730557 -0.01051776 27.15945125 -0.00734186 C31.81838845 -0.00480259 36.47732371 -0.0071602 41.13626099 -0.00872803 C48.95986793 -0.01054533 56.78346542 -0.00815512 64.60707092 -0.00338745 C73.6377224 0.00205242 82.66835128 0.00029274 91.69900221 -0.00521386 C99.46654545 -0.00975977 107.23408192 -0.01038824 115.00162607 -0.00777519 C119.6346321 -0.00622031 124.26762753 -0.00599695 128.90063286 -0.00931168 C133.2582765 -0.01221181 137.61589119 -0.01017547 141.97353172 -0.00441742 C143.56780194 -0.0031012 145.16207462 -0.00346448 146.75634384 -0.00568008 C154.47300295 -0.01541096 162.06591806 0.04502731 169.72059631 1.12698364 C169.72059631 2.77698364 169.72059631 4.42698364 169.72059631 6.12698364 C108.34059631 6.12698364 46.96059631 6.12698364 -16.27940369 6.12698364 C-15.94940369 4.47698364 -15.61940369 2.82698364 -15.27940369 1.12698364 C-10.14001103 0.41361804 -5.19919232 0.00160697 0 0 Z " fill="#DDE1FD" transform="translate(396.27940368652344,2071.873016357422)"/>
<path d="M0 0 C1.0308415 -0.00233999 1.0308415 -0.00233999 2.08250809 -0.00472724 C4.36069197 -0.00868176 6.63880794 -0.00556932 8.91699219 -0.00241089 C10.56034382 -0.00376739 12.20369514 -0.00554873 13.8470459 -0.00772095 C18.29325613 -0.0122656 22.73944307 -0.01051794 27.18565369 -0.00734186 C31.84772808 -0.00480291 36.50980053 -0.00716007 41.171875 -0.00872803 C48.99967811 -0.01054524 56.82747177 -0.00815516 64.65527344 -0.00338745 C73.69389732 0.0020543 82.73249864 0.00029133 91.77112198 -0.00521386 C99.54374509 -0.00975774 107.31636143 -0.01038928 115.08898544 -0.00777519 C119.72587198 -0.00621944 124.36274794 -0.00599939 128.99963379 -0.00931168 C133.35973665 -0.01220892 137.71981053 -0.0101807 142.07991028 -0.00441742 C143.67621309 -0.00309975 145.27251836 -0.003467 146.86882019 -0.00568008 C149.05515739 -0.00843079 151.24140294 -0.00496292 153.42773438 0 C154.64885925 0.00037703 155.86998413 0.00075405 157.12811279 0.0011425 C161.05446786 0.13893694 164.82410714 0.58700734 168.71386719 1.12698364 C168.71386719 2.77698364 168.71386719 4.42698364 168.71386719 6.12698364 C107.66386719 6.12698364 46.61386719 6.12698364 -16.28613281 6.12698364 C-15.95613281 4.47698364 -15.62613281 2.82698364 -15.28613281 1.12698364 C-10.14447123 0.41321843 -5.20151349 0.00160598 0 0 Z " fill="#DDE1FD" transform="translate(1154.2861328125,2071.873016357422)"/>
<path d="M0 0 C1.0308415 -0.00233999 1.0308415 -0.00233999 2.08250809 -0.00472724 C4.36069197 -0.00868176 6.63880794 -0.00556932 8.91699219 -0.00241089 C10.56034382 -0.00376739 12.20369514 -0.00554873 13.8470459 -0.00772095 C18.29325613 -0.0122656 22.73944307 -0.01051794 27.18565369 -0.00734186 C31.84772808 -0.00480291 36.50980053 -0.00716007 41.171875 -0.00872803 C48.99967811 -0.01054524 56.82747177 -0.00815516 64.65527344 -0.00338745 C73.69389732 0.0020543 82.73249864 0.00029133 91.77112198 -0.00521386 C99.54374509 -0.00975774 107.31636143 -0.01038928 115.08898544 -0.00777519 C119.72587198 -0.00621944 124.36274794 -0.00599939 128.99963379 -0.00931168 C133.35973665 -0.01220892 137.71981053 -0.0101807 142.07991028 -0.00441742 C143.67621309 -0.00309975 145.27251836 -0.003467 146.86882019 -0.00568008 C149.05515739 -0.00843079 151.24140294 -0.00496292 153.42773438 0 C154.64885925 0.00037703 155.86998413 0.00075405 157.12811279 0.0011425 C161.05446786 0.13893694 164.82410714 0.58700734 168.71386719 1.12698364 C168.71386719 2.77698364 168.71386719 4.42698364 168.71386719 6.12698364 C107.66386719 6.12698364 46.61386719 6.12698364 -16.28613281 6.12698364 C-15.95613281 4.47698364 -15.62613281 2.82698364 -15.28613281 1.12698364 C-10.14447123 0.41321843 -5.20151349 0.00160598 0 0 Z " fill="#DDE1FD" transform="translate(586.2861328125,2071.873016357422)"/>
</svg>
